<?xml version="1.0" encoding="UTF-8" standalone="no"?>
<!DOCTYPE svg PUBLIC "-//W3C//DTD SVG 1.1//EN"
 "http://www.w3.org/Graphics/SVG/1.1/DTD/svg11.dtd">
<!-- Generated by graphviz version 2.30.0 (20130122.1521)
 -->
<!-- Title: mult8 Pages: 1 -->
<svg width="2032pt" height="842pt"
 viewBox="0.00 0.00 2032.00 842.40" xmlns="http://www.w3.org/2000/svg" xmlns:xlink="http://www.w3.org/1999/xlink">
<g id="graph0" class="graph" transform="scale(1 1) rotate(0) translate(4 838.405)">
<title>mult8</title>
<polygon fill="white" stroke="white" points="-4,5 -4,-838.405 2029,-838.405 2029,5 -4,5"/>
<text text-anchor="middle" x="1012" y="-8.2" font-family="Times,serif" font-size="14.00">mult8</text>
<!-- n6 -->
<g id="node1" class="node"><title>n6</title>
<polygon fill="none" stroke="black" points="1349,-641.405 1298.5,-623.405 1349,-605.405 1399.5,-623.405 1349,-641.405"/>
<text text-anchor="middle" x="1349" y="-619.205" font-family="Times,serif" font-size="14.00">addEn</text>
</g>
<!-- c32 -->
<g id="node37" class="node"><title>c32</title>
<polygon fill="none" stroke="black" points="1440.73,-570.805 1440.73,-670.005 1567.27,-670.005 1567.27,-570.805 1440.73,-570.805"/>
<text text-anchor="middle" x="1465.46" y="-653.405" font-family="Times,serif" font-size="14.00">CLK</text>
<polyline fill="none" stroke="black" points="1440.73,-645.205 1490.18,-645.205 "/>
<text text-anchor="middle" x="1465.46" y="-628.605" font-family="Times,serif" font-size="14.00">D</text>
<polyline fill="none" stroke="black" points="1440.73,-620.405 1490.18,-620.405 "/>
<text text-anchor="middle" x="1465.46" y="-603.805" font-family="Times,serif" font-size="14.00">EN</text>
<polyline fill="none" stroke="black" points="1440.73,-595.605 1490.18,-595.605 "/>
<text text-anchor="middle" x="1465.46" y="-579.005" font-family="Times,serif" font-size="14.00">SRST</text>
<polyline fill="none" stroke="black" points="1490.18,-570.805 1490.18,-670.005 "/>
<text text-anchor="middle" x="1515.67" y="-624.605" font-family="Times,serif" font-size="14.00">$30</text>
<text text-anchor="middle" x="1515.67" y="-607.805" font-family="Times,serif" font-size="14.00">$sdffe</text>
<polyline fill="none" stroke="black" points="1541.16,-570.805 1541.16,-670.005 "/>
<text text-anchor="middle" x="1554.22" y="-616.405" font-family="Times,serif" font-size="14.00">Q</text>
</g>
<!-- n6&#45;&gt;c32 -->
<g id="edge40" class="edge"><title>n6:e&#45;&gt;c32:p31:w</title>
<path fill="none" stroke="black" d="M1401,-623.405C1415.51,-623.405 1419.82,-614.249 1429.86,-610.244"/>
<polygon fill="black" stroke="black" points="1430.79,-613.634 1440,-608.405 1429.54,-606.746 1430.79,-613.634"/>
</g>
<!-- n7 -->
<g id="node2" class="node"><title>n7</title>
<polygon fill="none" stroke="black" points="65,-127.949 65,-142.861 49.1838,-153.405 26.8162,-153.405 11,-142.861 11,-127.949 26.8162,-117.405 49.1838,-117.405 65,-127.949"/>
<text text-anchor="middle" x="38" y="-131.205" font-family="Times,serif" font-size="14.00">i_a</text>
</g>
<!-- x21 -->
<g id="node45" class="node"><title>x21</title>
<path fill="none" stroke="black" d="M680.277,-53.6047C680.277,-53.6047 723.723,-53.6047 723.723,-53.6047 729.723,-53.6047 735.723,-59.6047 735.723,-65.6047 735.723,-65.6047 735.723,-91.2047 735.723,-91.2047 735.723,-97.2047 729.723,-103.205 723.723,-103.205 723.723,-103.205 680.277,-103.205 680.277,-103.205 674.277,-103.205 668.277,-97.2047 668.277,-91.2047 668.277,-91.2047 668.277,-65.6047 668.277,-65.6047 668.277,-59.6047 674.277,-53.6047 680.277,-53.6047"/>
<text text-anchor="middle" x="702" y="-86.6047" font-family="Times,serif" font-size="14.00">0 &#45;&gt; 15:8</text>
<polyline fill="none" stroke="black" points="668.277,-78.4047 735.723,-78.4047 "/>
<text text-anchor="middle" x="702" y="-61.8047" font-family="Times,serif" font-size="14.00">7:0 &#45; 7:0</text>
</g>
<!-- n7&#45;&gt;x21 -->
<g id="edge41" class="edge"><title>n7:e&#45;&gt;x21:s0:w</title>
<path fill="none" stroke="black" stroke-width="3" d="M66,-135.405C331.452,-135.405 396.495,-68.1456 656.859,-66.4378"/>
<polygon fill="black" stroke="black" points="657.012,-69.9374 667,-66.4047 656.989,-62.9375 657.012,-69.9374"/>
</g>
<!-- x3 -->
<g id="node18" class="node"><title>x3</title>
<path fill="none" stroke="black" d="M142.279,-189.405C142.279,-189.405 181.721,-189.405 181.721,-189.405 187.721,-189.405 193.721,-195.405 193.721,-201.405 193.721,-201.405 193.721,-213.405 193.721,-213.405 193.721,-219.405 187.721,-225.405 181.721,-225.405 181.721,-225.405 142.279,-225.405 142.279,-225.405 136.279,-225.405 130.279,-219.405 130.279,-213.405 130.279,-213.405 130.279,-201.405 130.279,-201.405 130.279,-195.405 136.279,-189.405 142.279,-189.405"/>
<text text-anchor="middle" x="162" y="-203.305" font-family="Times,serif" font-size="14.00">0:0 &#45; 0:0</text>
</g>
<!-- n7&#45;&gt;x3 -->
<g id="edge42" class="edge"><title>n7:e&#45;&gt;x3:s0:w</title>
<path fill="none" stroke="black" d="M66,-135.405C104.7,-135.405 89.9188,-195.048 119.009,-205.766"/>
<polygon fill="black" stroke="black" points="118.565,-209.24 129,-207.405 119.699,-202.332 118.565,-209.24"/>
</g>
<!-- n8 -->
<g id="node3" class="node"><title>n8</title>
<polygon fill="none" stroke="black" points="65,-694.949 65,-709.861 49.1838,-720.405 26.8162,-720.405 11,-709.861 11,-694.949 26.8162,-684.405 49.1838,-684.405 65,-694.949"/>
<text text-anchor="middle" x="38" y="-698.205" font-family="Times,serif" font-size="14.00">i_b</text>
</g>
<!-- c38 -->
<g id="node46" class="node"><title>c38</title>
<polygon fill="none" stroke="black" points="111.948,-608.205 111.948,-682.605 212.052,-682.605 212.052,-608.205 111.948,-608.205"/>
<text text-anchor="middle" x="125.001" y="-666.005" font-family="Times,serif" font-size="14.00">A</text>
<polyline fill="none" stroke="black" points="111.948,-657.805 138.055,-657.805 "/>
<text text-anchor="middle" x="125.001" y="-641.205" font-family="Times,serif" font-size="14.00">B</text>
<polyline fill="none" stroke="black" points="111.948,-633.005 138.055,-633.005 "/>
<text text-anchor="middle" x="125.001" y="-616.405" font-family="Times,serif" font-size="14.00">S</text>
<polyline fill="none" stroke="black" points="138.055,-608.205 138.055,-682.605 "/>
<text text-anchor="middle" x="162" y="-649.605" font-family="Times,serif" font-size="14.00">$11</text>
<text text-anchor="middle" x="162" y="-632.805" font-family="Times,serif" font-size="14.00">$mux</text>
<polyline fill="none" stroke="black" points="185.945,-608.205 185.945,-682.605 "/>
<text text-anchor="middle" x="198.999" y="-641.505" font-family="Times,serif" font-size="14.00">Y</text>
</g>
<!-- n8&#45;&gt;c38 -->
<g id="edge43" class="edge"><title>n8:e&#45;&gt;c38:p17:w</title>
<path fill="none" stroke="black" stroke-width="3" d="M66,-702.405C94.6118,-702.405 83.3162,-658.374 102.263,-647.71"/>
<polygon fill="black" stroke="black" points="103.075,-651.114 112,-645.405 101.463,-644.303 103.075,-651.114"/>
</g>
<!-- x12 -->
<g id="node30" class="node"><title>x12</title>
<path fill="none" stroke="black" d="M142.279,-742.405C142.279,-742.405 181.721,-742.405 181.721,-742.405 187.721,-742.405 193.721,-748.405 193.721,-754.405 193.721,-754.405 193.721,-766.405 193.721,-766.405 193.721,-772.405 187.721,-778.405 181.721,-778.405 181.721,-778.405 142.279,-778.405 142.279,-778.405 136.279,-778.405 130.279,-772.405 130.279,-766.405 130.279,-766.405 130.279,-754.405 130.279,-754.405 130.279,-748.405 136.279,-742.405 142.279,-742.405"/>
<text text-anchor="middle" x="162" y="-756.305" font-family="Times,serif" font-size="14.00">7:7 &#45; 0:0</text>
</g>
<!-- n8&#45;&gt;x12 -->
<g id="edge44" class="edge"><title>n8:e&#45;&gt;x12:s0:w</title>
<path fill="none" stroke="black" d="M66,-702.405C100.194,-702.405 93.0777,-749.222 118.88,-758.731"/>
<polygon fill="black" stroke="black" points="118.563,-762.226 129,-760.405 119.705,-755.32 118.563,-762.226"/>
</g>
<!-- n9 -->
<g id="node4" class="node"><title>n9</title>
<polygon fill="none" stroke="black" points="76.1423,-467.949 76.1423,-482.861 53.799,-493.405 22.201,-493.405 -0.142258,-482.861 -0.142258,-467.949 22.201,-457.405 53.799,-457.405 76.1423,-467.949"/>
<text text-anchor="middle" x="38" y="-471.205" font-family="Times,serif" font-size="14.00">i_start</text>
</g>
<!-- c25 -->
<g id="node15" class="node"><title>c25</title>
<polygon fill="none" stroke="black" points="247.837,-463.205 247.837,-537.605 368.163,-537.605 368.163,-463.205 247.837,-463.205"/>
<text text-anchor="middle" x="272.564" y="-521.005" font-family="Times,serif" font-size="14.00">CLK</text>
<polyline fill="none" stroke="black" points="247.837,-512.805 297.291,-512.805 "/>
<text text-anchor="middle" x="272.564" y="-496.205" font-family="Times,serif" font-size="14.00">D</text>
<polyline fill="none" stroke="black" points="247.837,-488.005 297.291,-488.005 "/>
<text text-anchor="middle" x="272.564" y="-471.405" font-family="Times,serif" font-size="14.00">SRST</text>
<polyline fill="none" stroke="black" points="297.291,-463.205 297.291,-537.605 "/>
<text text-anchor="middle" x="319.674" y="-504.605" font-family="Times,serif" font-size="14.00">$23</text>
<text text-anchor="middle" x="319.674" y="-487.805" font-family="Times,serif" font-size="14.00">$sdff</text>
<polyline fill="none" stroke="black" points="342.057,-463.205 342.057,-537.605 "/>
<text text-anchor="middle" x="355.11" y="-496.505" font-family="Times,serif" font-size="14.00">Q</text>
</g>
<!-- n9&#45;&gt;c25 -->
<g id="edge45" class="edge"><title>n9:e&#45;&gt;c25:p23:w</title>
<path fill="none" stroke="black" d="M76,-475.405C148.861,-475.405 169.638,-475.405 237.616,-475.405"/>
<polygon fill="black" stroke="black" points="238,-478.905 248,-475.405 238,-471.905 238,-478.905"/>
</g>
<!-- c26 -->
<g id="node17" class="node"><title>c26</title>
<polygon fill="none" stroke="black" points="247.837,-170.205 247.837,-244.605 368.163,-244.605 368.163,-170.205 247.837,-170.205"/>
<text text-anchor="middle" x="272.564" y="-228.005" font-family="Times,serif" font-size="14.00">CLK</text>
<polyline fill="none" stroke="black" points="247.837,-219.805 297.291,-219.805 "/>
<text text-anchor="middle" x="272.564" y="-203.205" font-family="Times,serif" font-size="14.00">D</text>
<polyline fill="none" stroke="black" points="247.837,-195.005 297.291,-195.005 "/>
<text text-anchor="middle" x="272.564" y="-178.405" font-family="Times,serif" font-size="14.00">SRST</text>
<polyline fill="none" stroke="black" points="297.291,-170.205 297.291,-244.605 "/>
<text text-anchor="middle" x="319.674" y="-211.605" font-family="Times,serif" font-size="14.00">$24</text>
<text text-anchor="middle" x="319.674" y="-194.805" font-family="Times,serif" font-size="14.00">$sdff</text>
<polyline fill="none" stroke="black" points="342.057,-170.205 342.057,-244.605 "/>
<text text-anchor="middle" x="355.11" y="-203.505" font-family="Times,serif" font-size="14.00">Q</text>
</g>
<!-- n9&#45;&gt;c26 -->
<g id="edge46" class="edge"><title>n9:e&#45;&gt;c26:p23:w</title>
<path fill="none" stroke="black" d="M76,-475.405C142.262,-475.405 62.3975,-223.34 112,-179.405 154.606,-141.666 183.941,-177.641 237.674,-181.986"/>
<polygon fill="black" stroke="black" points="237.866,-185.497 248,-182.405 238.15,-178.503 237.866,-185.497"/>
</g>
<!-- c27 -->
<g id="node21" class="node"><title>c27</title>
<polygon fill="none" stroke="black" points="967.837,-298.205 967.837,-372.605 1088.16,-372.605 1088.16,-298.205 967.837,-298.205"/>
<text text-anchor="middle" x="992.564" y="-356.005" font-family="Times,serif" font-size="14.00">CLK</text>
<polyline fill="none" stroke="black" points="967.837,-347.805 1017.29,-347.805 "/>
<text text-anchor="middle" x="992.564" y="-331.205" font-family="Times,serif" font-size="14.00">D</text>
<polyline fill="none" stroke="black" points="967.837,-323.005 1017.29,-323.005 "/>
<text text-anchor="middle" x="992.564" y="-306.405" font-family="Times,serif" font-size="14.00">SRST</text>
<polyline fill="none" stroke="black" points="1017.29,-298.205 1017.29,-372.605 "/>
<text text-anchor="middle" x="1039.67" y="-339.605" font-family="Times,serif" font-size="14.00">$25</text>
<text text-anchor="middle" x="1039.67" y="-322.805" font-family="Times,serif" font-size="14.00">$sdff</text>
<polyline fill="none" stroke="black" points="1062.06,-298.205 1062.06,-372.605 "/>
<text text-anchor="middle" x="1075.11" y="-331.505" font-family="Times,serif" font-size="14.00">Q</text>
</g>
<!-- n9&#45;&gt;c27 -->
<g id="edge47" class="edge"><title>n9:e&#45;&gt;c27:p23:w</title>
<path fill="none" stroke="black" d="M76,-475.405C195.138,-475.405 187.862,-339.405 307,-339.405 307,-339.405 307,-339.405 703,-339.405 803.394,-339.405 828.852,-335.174 928,-319.405 941.588,-317.244 946.846,-313.042 956.761,-311.249"/>
<polygon fill="black" stroke="black" points="957.321,-314.714 967,-310.405 956.746,-307.738 957.321,-314.714"/>
</g>
<!-- c29 -->
<g id="node29" class="node"><title>c29</title>
<polygon fill="none" stroke="black" points="247.837,-754.205 247.837,-828.605 368.163,-828.605 368.163,-754.205 247.837,-754.205"/>
<text text-anchor="middle" x="272.564" y="-812.005" font-family="Times,serif" font-size="14.00">CLK</text>
<polyline fill="none" stroke="black" points="247.837,-803.805 297.291,-803.805 "/>
<text text-anchor="middle" x="272.564" y="-787.205" font-family="Times,serif" font-size="14.00">D</text>
<polyline fill="none" stroke="black" points="247.837,-779.005 297.291,-779.005 "/>
<text text-anchor="middle" x="272.564" y="-762.405" font-family="Times,serif" font-size="14.00">SRST</text>
<polyline fill="none" stroke="black" points="297.291,-754.205 297.291,-828.605 "/>
<text text-anchor="middle" x="319.674" y="-795.605" font-family="Times,serif" font-size="14.00">$27</text>
<text text-anchor="middle" x="319.674" y="-778.805" font-family="Times,serif" font-size="14.00">$sdff</text>
<polyline fill="none" stroke="black" points="342.057,-754.205 342.057,-828.605 "/>
<text text-anchor="middle" x="355.11" y="-787.505" font-family="Times,serif" font-size="14.00">Q</text>
</g>
<!-- n9&#45;&gt;c29 -->
<g id="edge48" class="edge"><title>n9:e&#45;&gt;c29:p23:w</title>
<path fill="none" stroke="black" d="M76,-475.405C124.662,-475.405 81.6511,-653.366 112,-691.405 141.958,-728.953 171.636,-706.364 212,-732.405 227.026,-742.099 226.872,-758.485 238.09,-764.289"/>
<polygon fill="black" stroke="black" points="237.49,-767.74 248,-766.405 238.951,-760.894 237.49,-767.74"/>
</g>
<!-- n9&#45;&gt;c32 -->
<g id="edge49" class="edge"><title>n9:e&#45;&gt;c32:p23:w</title>
<path fill="none" stroke="black" d="M76,-475.405C113.778,-475.405 81.4853,-530.133 112,-552.405 182.577,-603.916 219.624,-577.405 307,-577.405 307,-577.405 307,-577.405 1194,-577.405 1299.95,-577.405 1328.85,-583.036 1429.98,-583.388"/>
<polygon fill="black" stroke="black" points="1429.99,-586.887 1440,-583.405 1430.01,-579.887 1429.99,-586.887"/>
</g>
<!-- c37 -->
<g id="node43" class="node"><title>c37</title>
<polygon fill="none" stroke="black" points="977.948,-27.2047 977.948,-101.605 1078.05,-101.605 1078.05,-27.2047 977.948,-27.2047"/>
<text text-anchor="middle" x="991.001" y="-85.0047" font-family="Times,serif" font-size="14.00">A</text>
<polyline fill="none" stroke="black" points="977.948,-76.8047 1004.05,-76.8047 "/>
<text text-anchor="middle" x="991.001" y="-60.2047" font-family="Times,serif" font-size="14.00">B</text>
<polyline fill="none" stroke="black" points="977.948,-52.0047 1004.05,-52.0047 "/>
<text text-anchor="middle" x="991.001" y="-35.4047" font-family="Times,serif" font-size="14.00">S</text>
<polyline fill="none" stroke="black" points="1004.05,-27.2047 1004.05,-101.605 "/>
<text text-anchor="middle" x="1028" y="-68.6047" font-family="Times,serif" font-size="14.00">$9</text>
<text text-anchor="middle" x="1028" y="-51.8047" font-family="Times,serif" font-size="14.00">$mux</text>
<polyline fill="none" stroke="black" points="1051.95,-27.2047 1051.95,-101.605 "/>
<text text-anchor="middle" x="1065" y="-60.5047" font-family="Times,serif" font-size="14.00">Y</text>
</g>
<!-- n9&#45;&gt;c37 -->
<g id="edge50" class="edge"><title>n9:e&#45;&gt;c37:p36:w</title>
<path fill="none" stroke="black" d="M76,-475.405C146.897,-475.405 67.5522,-213.639 112,-158.405 226.814,-15.7288 318.865,-25.4047 502,-25.4047 502,-25.4047 502,-25.4047 703,-25.4047 821.483,-25.4047 853.283,-38.623 966.857,-39.3717"/>
<polygon fill="black" stroke="black" points="966.989,-42.872 977,-39.4047 967.011,-35.8721 966.989,-42.872"/>
</g>
<!-- n9&#45;&gt;c38 -->
<g id="edge51" class="edge"><title>n9:e&#45;&gt;c38:p36:w</title>
<path fill="none" stroke="black" d="M76,-475.405C138.51,-475.405 56.3827,-603.91 101.943,-618.97"/>
<polygon fill="black" stroke="black" points="101.606,-622.457 112,-620.405 102.595,-615.527 101.606,-622.457"/>
</g>
<!-- n10 -->
<g id="node5" class="node"><title>n10</title>
<polygon fill="none" stroke="black" points="503,-511.405 404.889,-493.405 503,-475.405 601.111,-493.405 503,-511.405"/>
<text text-anchor="middle" x="503" y="-489.205" font-family="Times,serif" font-size="14.00">multCounter_q</text>
</g>
<!-- c19 -->
<g id="node12" class="node"><title>c19</title>
<polygon fill="none" stroke="black" points="654.286,-466.605 654.286,-516.205 749.714,-516.205 749.714,-466.605 654.286,-466.605"/>
<text text-anchor="middle" x="667.339" y="-499.605" font-family="Times,serif" font-size="14.00">A</text>
<polyline fill="none" stroke="black" points="654.286,-491.405 680.393,-491.405 "/>
<text text-anchor="middle" x="667.339" y="-474.805" font-family="Times,serif" font-size="14.00">B</text>
<polyline fill="none" stroke="black" points="680.393,-466.605 680.393,-516.205 "/>
<text text-anchor="middle" x="702" y="-495.605" font-family="Times,serif" font-size="14.00">$5</text>
<text text-anchor="middle" x="702" y="-478.805" font-family="Times,serif" font-size="14.00">$add</text>
<polyline fill="none" stroke="black" points="723.607,-466.605 723.607,-516.205 "/>
<text text-anchor="middle" x="736.661" y="-487.605" font-family="Times,serif" font-size="14.00">Y</text>
</g>
<!-- n10&#45;&gt;c19 -->
<g id="edge17" class="edge"><title>n10:e&#45;&gt;c19:p16:w</title>
<path fill="none" stroke="black" stroke-width="3" d="M602,-493.405C621.309,-493.405 627.833,-500.393 642.947,-502.686"/>
<polygon fill="black" stroke="black" points="642.776,-506.182 653,-503.405 643.275,-499.2 642.776,-506.182"/>
</g>
<!-- c33 -->
<g id="node39" class="node"><title>c33</title>
<polygon fill="none" stroke="black" points="657.786,-397.605 657.786,-447.205 746.214,-447.205 746.214,-397.605 657.786,-397.605"/>
<text text-anchor="middle" x="670.839" y="-430.605" font-family="Times,serif" font-size="14.00">A</text>
<polyline fill="none" stroke="black" points="657.786,-422.405 683.893,-422.405 "/>
<text text-anchor="middle" x="670.839" y="-405.805" font-family="Times,serif" font-size="14.00">B</text>
<polyline fill="none" stroke="black" points="683.893,-397.605 683.893,-447.205 "/>
<text text-anchor="middle" x="702" y="-426.605" font-family="Times,serif" font-size="14.00">$1</text>
<text text-anchor="middle" x="702" y="-409.805" font-family="Times,serif" font-size="14.00">$eq</text>
<polyline fill="none" stroke="black" points="720.107,-397.605 720.107,-447.205 "/>
<text text-anchor="middle" x="733.161" y="-418.605" font-family="Times,serif" font-size="14.00">Y</text>
</g>
<!-- n10&#45;&gt;c33 -->
<g id="edge18" class="edge"><title>n10:e&#45;&gt;c33:p16:w</title>
<path fill="none" stroke="black" stroke-width="3" d="M602,-493.405C633.928,-493.405 624.175,-446.605 646.985,-436.368"/>
<polygon fill="black" stroke="black" points="647.86,-439.763 657,-434.405 646.513,-432.894 647.86,-439.763"/>
</g>
<!-- n11 -->
<g id="node6" class="node"><title>n11</title>
<polygon fill="none" stroke="black" points="2011.94,-463.949 2011.94,-478.861 1986.78,-489.405 1951.22,-489.405 1926.06,-478.861 1926.06,-463.949 1951.22,-453.405 1986.78,-453.405 2011.94,-463.949"/>
<text text-anchor="middle" x="1969" y="-467.205" font-family="Times,serif" font-size="14.00">o_done</text>
</g>
<!-- c35 -->
<g id="node42" class="node"><title>c35</title>
<polygon fill="none" stroke="black" points="963.95,-498.605 963.95,-540.205 1092.05,-540.205 1092.05,-498.605 963.95,-498.605"/>
<text text-anchor="middle" x="977.004" y="-515.605" font-family="Times,serif" font-size="14.00">A</text>
<polyline fill="none" stroke="black" points="990.057,-498.605 990.057,-540.205 "/>
<text text-anchor="middle" x="1028" y="-523.605" font-family="Times,serif" font-size="14.00">$2</text>
<text text-anchor="middle" x="1028" y="-506.805" font-family="Times,serif" font-size="14.00">$logic_not</text>
<polyline fill="none" stroke="black" points="1065.94,-498.605 1065.94,-540.205 "/>
<text text-anchor="middle" x="1079" y="-515.605" font-family="Times,serif" font-size="14.00">Y</text>
</g>
<!-- n11&#45;&gt;c35 -->
<g id="edge20" class="edge"><title>n11:e&#45;&gt;c35:p16:w</title>
<path fill="none" stroke="black" d="M2013,-471.405C2021.01,-471.405 2017.64,-483.711 2012,-489.405 1959.35,-542.576 1750.83,-511.405 1676,-511.405 1348,-511.405 1348,-511.405 1348,-511.405 1233.49,-511.405 1206.32,-533.95 1092,-540.405 1035.2,-543.612 1005.17,-579.663 964,-540.405 960.724,-537.281 958.195,-532.257 957.52,-527.906"/>
<polygon fill="black" stroke="black" points="960.523,-529.706 963,-519.405 954.64,-525.913 960.523,-529.706"/>
</g>
<!-- n12 -->
<g id="node7" class="node"><title>n12</title>
<polygon fill="none" stroke="black" points="2023.16,-618.949 2023.16,-633.861 1991.43,-644.405 1946.57,-644.405 1914.84,-633.861 1914.84,-618.949 1946.57,-608.405 1991.43,-608.405 2023.16,-618.949"/>
<text text-anchor="middle" x="1969" y="-622.205" font-family="Times,serif" font-size="14.00">o_product</text>
</g>
<!-- n13 -->
<g id="node8" class="node"><title>n13</title>
<polygon fill="none" stroke="black" points="1675,-638.405 1604.03,-620.405 1675,-602.405 1745.97,-620.405 1675,-638.405"/>
<text text-anchor="middle" x="1675" y="-616.205" font-family="Times,serif" font-size="14.00">product_q</text>
</g>
<!-- c20 -->
<g id="node13" class="node"><title>c20</title>
<polygon fill="none" stroke="black" points="1782.29,-540.605 1782.29,-590.205 1877.71,-590.205 1877.71,-540.605 1782.29,-540.605"/>
<text text-anchor="middle" x="1795.34" y="-573.605" font-family="Times,serif" font-size="14.00">A</text>
<polyline fill="none" stroke="black" points="1782.29,-565.405 1808.39,-565.405 "/>
<text text-anchor="middle" x="1795.34" y="-548.805" font-family="Times,serif" font-size="14.00">B</text>
<polyline fill="none" stroke="black" points="1808.39,-540.605 1808.39,-590.205 "/>
<text text-anchor="middle" x="1830" y="-569.605" font-family="Times,serif" font-size="14.00">$14</text>
<text text-anchor="middle" x="1830" y="-552.805" font-family="Times,serif" font-size="14.00">$add</text>
<polyline fill="none" stroke="black" points="1851.61,-540.605 1851.61,-590.205 "/>
<text text-anchor="middle" x="1864.66" y="-561.605" font-family="Times,serif" font-size="14.00">Y</text>
</g>
<!-- n13&#45;&gt;c20 -->
<g id="edge23" class="edge"><title>n13:e&#45;&gt;c20:p16:w</title>
<path fill="none" stroke="black" stroke-width="3" d="M1746,-620.405C1766.64,-620.405 1760.69,-590.916 1772.19,-580.779"/>
<polygon fill="black" stroke="black" points="1773.68,-583.967 1782,-577.405 1771.41,-577.348 1773.68,-583.967"/>
</g>
<!-- x23 -->
<g id="node48" class="node"><title>x23</title>
<path fill="none" stroke="black" d="M1845,-644.405C1845,-644.405 1815,-644.405 1815,-644.405 1809,-644.405 1803,-638.405 1803,-632.405 1803,-632.405 1803,-620.405 1803,-620.405 1803,-614.405 1809,-608.405 1815,-608.405 1815,-608.405 1845,-608.405 1845,-608.405 1851,-608.405 1857,-614.405 1857,-620.405 1857,-620.405 1857,-632.405 1857,-632.405 1857,-638.405 1851,-644.405 1845,-644.405"/>
<text text-anchor="middle" x="1830" y="-622.205" font-family="Times,serif" font-size="14.00">BUF</text>
</g>
<!-- n13&#45;&gt;x23 -->
<g id="edge24" class="edge"><title>n13:e&#45;&gt;x23:w:w</title>
<path fill="none" stroke="black" stroke-width="3" d="M1746,-620.405C1767.32,-620.405 1774.79,-624.756 1791.99,-626.047"/>
<polygon fill="black" stroke="black" points="1791.88,-629.546 1802,-626.405 1792.13,-622.55 1791.88,-629.546"/>
</g>
<!-- n14 -->
<g id="node9" class="node"><title>n14</title>
<polygon fill="none" stroke="black" points="702,-225.405 638.699,-207.405 702,-189.405 765.301,-207.405 702,-225.405"/>
<text text-anchor="middle" x="702" y="-203.205" font-family="Times,serif" font-size="14.00">shiftA_q</text>
</g>
<!-- n14&#45;&gt;c20 -->
<g id="edge28" class="edge"><title>n14:e&#45;&gt;c20:p17:w</title>
<path fill="none" stroke="black" stroke-width="3" d="M766,-207.405C986.996,-207.405 1047.78,-211.24 1258,-279.405 1504.7,-359.397 1518.86,-548.337 1771.74,-553.305"/>
<polygon fill="black" stroke="black" points="1771.97,-556.807 1782,-553.405 1772.03,-549.807 1771.97,-556.807"/>
</g>
<!-- x20 -->
<g id="node44" class="node"><title>x20</title>
<path fill="none" stroke="black" d="M838.279,-91.6047C838.279,-91.6047 891.721,-91.6047 891.721,-91.6047 897.721,-91.6047 903.721,-97.6047 903.721,-103.605 903.721,-103.605 903.721,-129.205 903.721,-129.205 903.721,-135.205 897.721,-141.205 891.721,-141.205 891.721,-141.205 838.279,-141.205 838.279,-141.205 832.279,-141.205 826.279,-135.205 826.279,-129.205 826.279,-129.205 826.279,-103.605 826.279,-103.605 826.279,-97.6047 832.279,-91.6047 838.279,-91.6047"/>
<text text-anchor="middle" x="865" y="-124.605" font-family="Times,serif" font-size="14.00">14:0 &#45; 15:1</text>
<polyline fill="none" stroke="black" points="826.279,-116.405 903.721,-116.405 "/>
<text text-anchor="middle" x="865" y="-99.8047" font-family="Times,serif" font-size="14.00">0 &#45;&gt; 0:0</text>
</g>
<!-- n14&#45;&gt;x20 -->
<g id="edge29" class="edge"><title>n14:e&#45;&gt;x20:s1:w</title>
<path fill="none" stroke="black" stroke-width="3" d="M766,-207.405C805.885,-207.405 785.74,-141.962 814.838,-130.203"/>
<polygon fill="black" stroke="black" points="815.763,-133.594 825,-128.405 814.543,-126.701 815.763,-133.594"/>
</g>
<!-- x6 -->
<g id="node22" class="node"><title>x6</title>
<path fill="none" stroke="black" d="M841.779,-274.405C841.779,-274.405 888.221,-274.405 888.221,-274.405 894.221,-274.405 900.221,-280.405 900.221,-286.405 900.221,-286.405 900.221,-298.405 900.221,-298.405 900.221,-304.405 894.221,-310.405 888.221,-310.405 888.221,-310.405 841.779,-310.405 841.779,-310.405 835.779,-310.405 829.779,-304.405 829.779,-298.405 829.779,-298.405 829.779,-286.405 829.779,-286.405 829.779,-280.405 835.779,-274.405 841.779,-274.405"/>
<text text-anchor="middle" x="865" y="-288.305" font-family="Times,serif" font-size="14.00">14:7 &#45; 7:0</text>
</g>
<!-- n14&#45;&gt;x6 -->
<g id="edge30" class="edge"><title>n14:e&#45;&gt;x6:s0:w</title>
<path fill="none" stroke="black" stroke-width="3" d="M766,-207.405C809.166,-207.405 786.545,-279.031 818.918,-290.783"/>
<polygon fill="black" stroke="black" points="818.571,-294.272 829,-292.405 819.683,-287.361 818.571,-294.272"/>
</g>
<!-- n15 -->
<g id="node10" class="node"><title>n15</title>
<polygon fill="none" stroke="black" points="865,-684.405 802.201,-666.405 865,-648.405 927.799,-666.405 865,-684.405"/>
<text text-anchor="middle" x="865" y="-662.205" font-family="Times,serif" font-size="14.00">shiftB_q</text>
</g>
<!-- x19 -->
<g id="node41" class="node"><title>x19</title>
<path fill="none" stroke="black" d="M1008.28,-635.405C1008.28,-635.405 1047.72,-635.405 1047.72,-635.405 1053.72,-635.405 1059.72,-641.405 1059.72,-647.405 1059.72,-647.405 1059.72,-659.405 1059.72,-659.405 1059.72,-665.405 1053.72,-671.405 1047.72,-671.405 1047.72,-671.405 1008.28,-671.405 1008.28,-671.405 1002.28,-671.405 996.279,-665.405 996.279,-659.405 996.279,-659.405 996.279,-647.405 996.279,-647.405 996.279,-641.405 1002.28,-635.405 1008.28,-635.405"/>
<text text-anchor="middle" x="1028" y="-649.305" font-family="Times,serif" font-size="14.00">0:0 &#45; 0:0</text>
</g>
<!-- n15&#45;&gt;x19 -->
<g id="edge33" class="edge"><title>n15:e&#45;&gt;x19:s0:w</title>
<path fill="none" stroke="black" d="M928,-666.405C954.66,-666.405 962.781,-656.363 984.951,-653.93"/>
<polygon fill="black" stroke="black" points="985.197,-657.423 995,-653.405 984.831,-650.432 985.197,-657.423"/>
</g>
<!-- x22 -->
<g id="node47" class="node"><title>x22</title>
<path fill="none" stroke="black" d="M1008.28,-695.605C1008.28,-695.605 1047.72,-695.605 1047.72,-695.605 1053.72,-695.605 1059.72,-701.605 1059.72,-707.605 1059.72,-707.605 1059.72,-733.205 1059.72,-733.205 1059.72,-739.205 1053.72,-745.205 1047.72,-745.205 1047.72,-745.205 1008.28,-745.205 1008.28,-745.205 1002.28,-745.205 996.279,-739.205 996.279,-733.205 996.279,-733.205 996.279,-707.605 996.279,-707.605 996.279,-701.605 1002.28,-695.605 1008.28,-695.605"/>
<text text-anchor="middle" x="1028" y="-728.605" font-family="Times,serif" font-size="14.00">0 &#45;&gt; 7:7</text>
<polyline fill="none" stroke="black" points="996.279,-720.405 1059.72,-720.405 "/>
<text text-anchor="middle" x="1028" y="-703.805" font-family="Times,serif" font-size="14.00">7:1 &#45; 6:0</text>
</g>
<!-- n15&#45;&gt;x22 -->
<g id="edge34" class="edge"><title>n15:e&#45;&gt;x22:s0:w</title>
<path fill="none" stroke="black" stroke-width="3" d="M928,-666.405C959.438,-666.405 960.122,-700.013 985.072,-707.102"/>
<polygon fill="black" stroke="black" points="984.63,-710.574 995,-708.405 985.541,-703.633 984.63,-710.574"/>
</g>
<!-- v0 -->
<g id="node11" class="node"><title>v0</title>
<ellipse fill="none" stroke="black" cx="503" cy="-439.405" rx="27" ry="18"/>
<text text-anchor="middle" x="503" y="-435.205" font-family="Times,serif" font-size="14.00">1&#39;1</text>
</g>
<!-- v0&#45;&gt;c19 -->
<g id="edge52" class="edge"><title>v0:e&#45;&gt;c19:p17:w</title>
<path fill="none" stroke="black" d="M531,-439.405C584.496,-439.405 594.761,-474.561 642.853,-478.956"/>
<polygon fill="black" stroke="black" points="642.855,-482.459 653,-479.405 643.165,-475.466 642.855,-482.459"/>
</g>
<!-- c19&#45;&gt;c25 -->
<g id="edge36" class="edge"><title>c19:p18:e&#45;&gt;c25:p22:w</title>
<path fill="none" stroke="black" stroke-width="3" d="M751,-491.405C762.12,-491.405 757.804,-508.483 750,-516.405 690.335,-576.968 452.985,-535.071 368,-537.405 314.687,-538.869 286.218,-574.604 248,-537.405 239.435,-529.068 234.104,-513.314 238.139,-505.321"/>
<polygon fill="black" stroke="black" points="239.954,-508.317 247,-500.405 236.558,-502.196 239.954,-508.317"/>
</g>
<!-- c20&#45;&gt;c32 -->
<g id="edge37" class="edge"><title>c20:p18:e&#45;&gt;c32:p22:w</title>
<path fill="none" stroke="black" stroke-width="3" d="M1879,-565.405C1890.12,-565.405 1885.98,-582.657 1878,-590.405 1867.08,-601.012 1616.8,-585.162 1604,-593.405 1572.24,-613.861 1599.87,-650.123 1568,-670.405 1520.38,-700.708 1481.43,-709.789 1441,-670.405 1432.11,-661.748 1426.63,-645.312 1431.03,-637.191"/>
<polygon fill="black" stroke="black" points="1432.83,-640.201 1440,-632.405 1429.53,-634.026 1432.83,-640.201"/>
</g>
<!-- v1 -->
<g id="node14" class="node"><title>v1</title>
<ellipse fill="none" stroke="black" cx="162" cy="-525.405" rx="30.1958" ry="18"/>
<text text-anchor="middle" x="162" y="-521.205" font-family="Times,serif" font-size="14.00">i_clk</text>
</g>
<!-- v1&#45;&gt;c25 -->
<g id="edge53" class="edge"><title>v1:e&#45;&gt;c25:p21:w</title>
<path fill="none" stroke="black" d="M194,-525.405C214.25,-525.405 221.686,-525.405 237.931,-525.405"/>
<polygon fill="black" stroke="black" points="238,-528.905 248,-525.405 238,-521.905 238,-528.905"/>
</g>
<!-- c25&#45;&gt;n10 -->
<g id="edge16" class="edge"><title>c25:p24:e&#45;&gt;n10:w</title>
<path fill="none" stroke="black" stroke-width="3" d="M368,-500.405C380.225,-500.405 385.194,-496.467 393.791,-494.498"/>
<polygon fill="black" stroke="black" points="394.43,-497.95 404,-493.405 393.684,-490.99 394.43,-497.95"/>
</g>
<!-- v2 -->
<g id="node16" class="node"><title>v2</title>
<ellipse fill="none" stroke="black" cx="162" cy="-262.405" rx="30.1958" ry="18"/>
<text text-anchor="middle" x="162" y="-258.205" font-family="Times,serif" font-size="14.00">i_clk</text>
</g>
<!-- v2&#45;&gt;c26 -->
<g id="edge58" class="edge"><title>v2:e&#45;&gt;c26:p21:w</title>
<path fill="none" stroke="black" d="M194,-262.405C217.594,-262.405 220.24,-240.249 237.942,-234.018"/>
<polygon fill="black" stroke="black" points="238.68,-237.444 248,-232.405 237.572,-230.532 238.68,-237.444"/>
</g>
<!-- x4 -->
<g id="node19" class="node"><title>x4</title>
<path fill="none" stroke="black" d="M483.279,-189.405C483.279,-189.405 522.721,-189.405 522.721,-189.405 528.721,-189.405 534.721,-195.405 534.721,-201.405 534.721,-201.405 534.721,-213.405 534.721,-213.405 534.721,-219.405 528.721,-225.405 522.721,-225.405 522.721,-225.405 483.279,-225.405 483.279,-225.405 477.279,-225.405 471.279,-219.405 471.279,-213.405 471.279,-213.405 471.279,-201.405 471.279,-201.405 471.279,-195.405 477.279,-189.405 483.279,-189.405"/>
<text text-anchor="middle" x="503" y="-203.305" font-family="Times,serif" font-size="14.00">0:0 &#45; 0:0</text>
</g>
<!-- c26&#45;&gt;x4 -->
<g id="edge2" class="edge"><title>c26:p24:e&#45;&gt;x4:w</title>
<path fill="none" stroke="black" d="M380.372,-207.405C412.127,-207.405 426.057,-207.405 457.922,-207.405"/>
<polygon fill="none" stroke="black" points="380,-207.405 374,-211.405 368,-207.405 374,-203.405 380,-207.405"/>
<polygon fill="none" stroke="black" points="458,-207.405 464,-203.405 470,-207.405 464,-211.405 458,-207.405"/>
</g>
<!-- x3&#45;&gt;c26 -->
<g id="edge1" class="edge"><title>x3:e&#45;&gt;c26:p22:w</title>
<path fill="none" stroke="black" d="M207.044,-207.405C218.021,-207.405 224.996,-207.405 235.98,-207.405"/>
<polygon fill="none" stroke="black" points="207,-207.405 201,-211.405 195,-207.405 201,-203.405 207,-207.405"/>
<polygon fill="none" stroke="black" points="236,-207.405 242,-203.405 248,-207.405 242,-211.405 236,-207.405"/>
</g>
<!-- x4&#45;&gt;n14 -->
<g id="edge26" class="edge"><title>x4:s0:e&#45;&gt;n14:w</title>
<path fill="none" stroke="black" d="M536,-207.405C577.792,-207.405 590.688,-207.405 627.965,-207.405"/>
<polygon fill="black" stroke="black" points="628,-210.905 638,-207.405 628,-203.905 628,-210.905"/>
</g>
<!-- v5 -->
<g id="node20" class="node"><title>v5</title>
<ellipse fill="none" stroke="black" cx="865" cy="-385.405" rx="30.1958" ry="18"/>
<text text-anchor="middle" x="865" y="-381.205" font-family="Times,serif" font-size="14.00">i_clk</text>
</g>
<!-- v5&#45;&gt;c27 -->
<g id="edge59" class="edge"><title>v5:e&#45;&gt;c27:p21:w</title>
<path fill="none" stroke="black" d="M897,-385.405C926.293,-385.405 932.701,-365.748 956.809,-361.295"/>
<polygon fill="black" stroke="black" points="957.342,-364.761 967,-360.405 956.733,-357.788 957.342,-364.761"/>
</g>
<!-- x7 -->
<g id="node23" class="node"><title>x7</title>
<path fill="none" stroke="black" d="M1169.78,-289.405C1169.78,-289.405 1216.22,-289.405 1216.22,-289.405 1222.22,-289.405 1228.22,-295.405 1228.22,-301.405 1228.22,-301.405 1228.22,-313.405 1228.22,-313.405 1228.22,-319.405 1222.22,-325.405 1216.22,-325.405 1216.22,-325.405 1169.78,-325.405 1169.78,-325.405 1163.78,-325.405 1157.78,-319.405 1157.78,-313.405 1157.78,-313.405 1157.78,-301.405 1157.78,-301.405 1157.78,-295.405 1163.78,-289.405 1169.78,-289.405"/>
<text text-anchor="middle" x="1193" y="-303.305" font-family="Times,serif" font-size="14.00">7:0 &#45; 15:8</text>
</g>
<!-- c27&#45;&gt;x7 -->
<g id="edge4" class="edge"><title>c27:p24:e&#45;&gt;x7:w</title>
<path fill="none" stroke="black" stroke-width="3" d="M1101.17,-333.899C1119.52,-329.015 1126.62,-313.647 1145.06,-308.85"/>
<polygon fill="none" stroke="black" points="1100.91,-333.932 1095.45,-338.638 1089,-335.405 1094.46,-330.699 1100.91,-333.932"/>
<polygon fill="none" stroke="black" points="1145.09,-308.846 1150.56,-304.154 1157,-307.405 1151.52,-312.097 1145.09,-308.846"/>
</g>
<!-- x6&#45;&gt;c27 -->
<g id="edge3" class="edge"><title>x6:e&#45;&gt;c27:p22:w</title>
<path fill="none" stroke="black" stroke-width="3" d="M913.067,-294.479C932.193,-301.76 935.832,-326.103 954.988,-333.352"/>
<polygon fill="none" stroke="black" points="912.827,-294.438 906.236,-297.363 901,-292.405 907.591,-289.479 912.827,-294.438"/>
<polygon fill="none" stroke="black" points="955.172,-333.383 961.76,-330.451 967,-335.405 960.412,-338.337 955.172,-333.383"/>
</g>
<!-- x7&#45;&gt;n14 -->
<g id="edge27" class="edge"><title>x7:s0:e&#45;&gt;n14:w</title>
<path fill="none" stroke="black" stroke-width="3" d="M1229,-307.405C1252.47,-307.405 1260.33,-352.13 1158,-325.405 1125.46,-316.907 1123.83,-299.242 1092,-288.405 1022.27,-264.664 1000.95,-274.664 928,-264.405 863.827,-255.379 682.987,-272.994 639,-225.405 636.876,-223.106 635.036,-219.857 634.06,-216.75"/>
<polygon fill="black" stroke="black" points="637.34,-217.979 638,-207.405 630.89,-215.26 637.34,-217.979"/>
</g>
<!-- v8 -->
<g id="node24" class="node"><title>v8</title>
<ellipse fill="none" stroke="black" cx="1193" cy="-122.405" rx="30.1958" ry="18"/>
<text text-anchor="middle" x="1193" y="-118.205" font-family="Times,serif" font-size="14.00">i_clk</text>
</g>
<!-- c28 -->
<g id="node25" class="node"><title>c28</title>
<polygon fill="none" stroke="black" points="1294.29,-85.6047 1294.29,-135.205 1403.71,-135.205 1403.71,-85.6047 1294.29,-85.6047"/>
<text text-anchor="middle" x="1316.29" y="-118.605" font-family="Times,serif" font-size="14.00">CLK</text>
<polyline fill="none" stroke="black" points="1294.29,-110.405 1338.28,-110.405 "/>
<text text-anchor="middle" x="1316.29" y="-93.8047" font-family="Times,serif" font-size="14.00">D</text>
<polyline fill="none" stroke="black" points="1338.28,-85.6047 1338.28,-135.205 "/>
<text text-anchor="middle" x="1357.94" y="-114.605" font-family="Times,serif" font-size="14.00">$26</text>
<text text-anchor="middle" x="1357.94" y="-97.8047" font-family="Times,serif" font-size="14.00">$dff</text>
<polyline fill="none" stroke="black" points="1377.61,-85.6047 1377.61,-135.205 "/>
<text text-anchor="middle" x="1390.66" y="-106.605" font-family="Times,serif" font-size="14.00">Q</text>
</g>
<!-- v8&#45;&gt;c28 -->
<g id="edge60" class="edge"><title>v8:e&#45;&gt;c28:p21:w</title>
<path fill="none" stroke="black" d="M1225,-122.405C1251.95,-122.405 1261.14,-122.405 1283.79,-122.405"/>
<polygon fill="black" stroke="black" points="1284,-125.905 1294,-122.405 1284,-118.905 1284,-125.905"/>
</g>
<!-- x10 -->
<g id="node27" class="node"><title>x10</title>
<path fill="none" stroke="black" d="M1484.28,-121.405C1484.28,-121.405 1523.72,-121.405 1523.72,-121.405 1529.72,-121.405 1535.72,-127.405 1535.72,-133.405 1535.72,-133.405 1535.72,-145.405 1535.72,-145.405 1535.72,-151.405 1529.72,-157.405 1523.72,-157.405 1523.72,-157.405 1484.28,-157.405 1484.28,-157.405 1478.28,-157.405 1472.28,-151.405 1472.28,-145.405 1472.28,-145.405 1472.28,-133.405 1472.28,-133.405 1472.28,-127.405 1478.28,-121.405 1484.28,-121.405"/>
<text text-anchor="middle" x="1504" y="-135.305" font-family="Times,serif" font-size="14.00">6:0 &#45; 7:1</text>
</g>
<!-- c28&#45;&gt;x10 -->
<g id="edge6" class="edge"><title>c28:p24:e&#45;&gt;x10:w</title>
<path fill="none" stroke="black" stroke-width="3" d="M1416.06,-111.964C1434.1,-116.999 1440.89,-132.792 1458.91,-137.838"/>
<polygon fill="none" stroke="black" points="1415.9,-111.944 1409.44,-115.141 1404,-110.405 1410.46,-107.207 1415.9,-111.944"/>
<polygon fill="none" stroke="black" points="1459.1,-137.862 1465.56,-134.666 1471,-139.405 1464.54,-142.6 1459.1,-137.862"/>
</g>
<!-- x9 -->
<g id="node26" class="node"><title>x9</title>
<path fill="none" stroke="black" d="M1173.28,-47.4047C1173.28,-47.4047 1212.72,-47.4047 1212.72,-47.4047 1218.72,-47.4047 1224.72,-53.4047 1224.72,-59.4047 1224.72,-59.4047 1224.72,-71.4047 1224.72,-71.4047 1224.72,-77.4047 1218.72,-83.4047 1212.72,-83.4047 1212.72,-83.4047 1173.28,-83.4047 1173.28,-83.4047 1167.28,-83.4047 1161.28,-77.4047 1161.28,-71.4047 1161.28,-71.4047 1161.28,-59.4047 1161.28,-59.4047 1161.28,-53.4047 1167.28,-47.4047 1173.28,-47.4047"/>
<text text-anchor="middle" x="1193" y="-61.3047" font-family="Times,serif" font-size="14.00">7:1 &#45; 6:0</text>
</g>
<!-- x9&#45;&gt;c28 -->
<g id="edge5" class="edge"><title>x9:e&#45;&gt;c28:p22:w</title>
<path fill="none" stroke="black" stroke-width="3" d="M1238.11,-67.0866C1256.94,-72.7606 1263.14,-91.1556 1282.03,-96.7655"/>
<polygon fill="none" stroke="black" points="1237.89,-67.0558 1231.39,-70.1923 1226,-65.4047 1232.49,-62.2683 1237.89,-67.0558"/>
<polygon fill="none" stroke="black" points="1282.11,-96.7759 1288.6,-93.6273 1294,-98.4047 1287.51,-101.553 1282.11,-96.7759"/>
</g>
<!-- x10&#45;&gt;n14 -->
<g id="edge25" class="edge"><title>x10:s0:e&#45;&gt;n14:w</title>
<path fill="none" stroke="black" stroke-width="3" d="M1537,-139.405C1545.01,-139.405 1541.72,-151.797 1536,-157.405 1427.36,-263.847 1346.09,-169.405 1194,-169.405 1027,-169.405 1027,-169.405 1027,-169.405 926.433,-169.405 893.972,-152.723 802,-193.405 782.422,-202.064 786.01,-217.797 766,-225.405 713.24,-245.464 680.004,-264.194 639,-225.405 636.635,-223.168 634.705,-219.778 633.783,-216.541"/>
<polygon fill="black" stroke="black" points="636.986,-217.951 638,-207.405 630.631,-215.017 636.986,-217.951"/>
</g>
<!-- v11 -->
<g id="node28" class="node"><title>v11</title>
<ellipse fill="none" stroke="black" cx="162" cy="-816.405" rx="30.1958" ry="18"/>
<text text-anchor="middle" x="162" y="-812.205" font-family="Times,serif" font-size="14.00">i_clk</text>
</g>
<!-- v11&#45;&gt;c29 -->
<g id="edge54" class="edge"><title>v11:e&#45;&gt;c29:p21:w</title>
<path fill="none" stroke="black" d="M194,-816.405C214.25,-816.405 221.686,-816.405 237.931,-816.405"/>
<polygon fill="black" stroke="black" points="238,-819.905 248,-816.405 238,-812.905 238,-819.905"/>
</g>
<!-- x13 -->
<g id="node31" class="node"><title>x13</title>
<path fill="none" stroke="black" d="M682.279,-661.405C682.279,-661.405 721.721,-661.405 721.721,-661.405 727.721,-661.405 733.721,-667.405 733.721,-673.405 733.721,-673.405 733.721,-685.405 733.721,-685.405 733.721,-691.405 727.721,-697.405 721.721,-697.405 721.721,-697.405 682.279,-697.405 682.279,-697.405 676.279,-697.405 670.279,-691.405 670.279,-685.405 670.279,-685.405 670.279,-673.405 670.279,-673.405 670.279,-667.405 676.279,-661.405 682.279,-661.405"/>
<text text-anchor="middle" x="702" y="-675.305" font-family="Times,serif" font-size="14.00">0:0 &#45; 7:7</text>
</g>
<!-- c29&#45;&gt;x13 -->
<g id="edge8" class="edge"><title>c29:p24:e&#45;&gt;x13:w</title>
<path fill="none" stroke="black" d="M380.224,-791.122C507.775,-785.126 529.208,-685.703 656.739,-679.689"/>
<polygon fill="none" stroke="black" points="379.997,-791.127 374.091,-795.265 368,-791.405 373.906,-787.267 379.997,-791.127"/>
<polygon fill="none" stroke="black" points="657.003,-679.683 662.909,-675.545 669,-679.405 663.094,-683.543 657.003,-679.683"/>
</g>
<!-- x12&#45;&gt;c29 -->
<g id="edge7" class="edge"><title>x12:e&#45;&gt;c29:p22:w</title>
<path fill="none" stroke="black" d="M206.806,-762.837C219.268,-768.604 223.641,-783.057 236.034,-788.897"/>
<polygon fill="none" stroke="black" points="206.753,-762.826 200.069,-765.533 195,-760.405 201.684,-757.698 206.753,-762.826"/>
<polygon fill="none" stroke="black" points="236.255,-788.944 242.948,-786.259 248,-791.405 241.307,-794.089 236.255,-788.944"/>
</g>
<!-- x13&#45;&gt;n15 -->
<g id="edge31" class="edge"><title>x13:s0:e&#45;&gt;n15:w</title>
<path fill="none" stroke="black" d="M735,-679.405C761.66,-679.405 769.781,-669.363 791.951,-666.93"/>
<polygon fill="black" stroke="black" points="792.197,-670.423 802,-666.405 791.831,-663.432 792.197,-670.423"/>
</g>
<!-- v14 -->
<g id="node32" class="node"><title>v14</title>
<ellipse fill="none" stroke="black" cx="308" cy="-679.405" rx="30.1958" ry="18"/>
<text text-anchor="middle" x="308" y="-675.205" font-family="Times,serif" font-size="14.00">i_clk</text>
</g>
<!-- c30 -->
<g id="node33" class="node"><title>c30</title>
<polygon fill="none" stroke="black" points="448.288,-610.605 448.288,-660.205 557.712,-660.205 557.712,-610.605 448.288,-610.605"/>
<text text-anchor="middle" x="470.286" y="-643.605" font-family="Times,serif" font-size="14.00">CLK</text>
<polyline fill="none" stroke="black" points="448.288,-635.405 492.284,-635.405 "/>
<text text-anchor="middle" x="470.286" y="-618.805" font-family="Times,serif" font-size="14.00">D</text>
<polyline fill="none" stroke="black" points="492.284,-610.605 492.284,-660.205 "/>
<text text-anchor="middle" x="511.945" y="-639.605" font-family="Times,serif" font-size="14.00">$28</text>
<text text-anchor="middle" x="511.945" y="-622.805" font-family="Times,serif" font-size="14.00">$dff</text>
<polyline fill="none" stroke="black" points="531.605,-610.605 531.605,-660.205 "/>
<text text-anchor="middle" x="544.659" y="-631.605" font-family="Times,serif" font-size="14.00">Q</text>
</g>
<!-- v14&#45;&gt;c30 -->
<g id="edge55" class="edge"><title>v14:e&#45;&gt;c30:p21:w</title>
<path fill="none" stroke="black" d="M340,-679.405C386.05,-679.405 396.028,-651.863 436.864,-647.882"/>
<polygon fill="black" stroke="black" points="437.176,-651.371 447,-647.405 436.846,-644.379 437.176,-651.371"/>
</g>
<!-- x16 -->
<g id="node35" class="node"><title>x16</title>
<path fill="none" stroke="black" d="M682.279,-606.405C682.279,-606.405 721.721,-606.405 721.721,-606.405 727.721,-606.405 733.721,-612.405 733.721,-618.405 733.721,-618.405 733.721,-630.405 733.721,-630.405 733.721,-636.405 727.721,-642.405 721.721,-642.405 721.721,-642.405 682.279,-642.405 682.279,-642.405 676.279,-642.405 670.279,-636.405 670.279,-630.405 670.279,-630.405 670.279,-618.405 670.279,-618.405 670.279,-612.405 676.279,-606.405 682.279,-606.405"/>
<text text-anchor="middle" x="702" y="-620.305" font-family="Times,serif" font-size="14.00">6:0 &#45; 6:0</text>
</g>
<!-- c30&#45;&gt;x16 -->
<g id="edge10" class="edge"><title>c30:p24:e&#45;&gt;x16:w</title>
<path fill="none" stroke="black" stroke-width="3" d="M571.139,-635.165C606.642,-633.713 621.265,-626.12 656.708,-624.651"/>
<polygon fill="none" stroke="black" points="570.998,-635.167 565.078,-639.285 559,-635.405 564.92,-631.287 570.998,-635.167"/>
<polygon fill="none" stroke="black" points="657.002,-624.645 662.921,-620.526 669,-624.405 663.081,-628.524 657.002,-624.645"/>
</g>
<!-- x15 -->
<g id="node34" class="node"><title>x15</title>
<path fill="none" stroke="black" d="M288.279,-606.405C288.279,-606.405 327.721,-606.405 327.721,-606.405 333.721,-606.405 339.721,-612.405 339.721,-618.405 339.721,-618.405 339.721,-630.405 339.721,-630.405 339.721,-636.405 333.721,-642.405 327.721,-642.405 327.721,-642.405 288.279,-642.405 288.279,-642.405 282.279,-642.405 276.279,-636.405 276.279,-630.405 276.279,-630.405 276.279,-618.405 276.279,-618.405 276.279,-612.405 282.279,-606.405 288.279,-606.405"/>
<text text-anchor="middle" x="308" y="-620.305" font-family="Times,serif" font-size="14.00">6:0 &#45; 6:0</text>
</g>
<!-- x15&#45;&gt;c30 -->
<g id="edge9" class="edge"><title>x15:e&#45;&gt;c30:p22:w</title>
<path fill="none" stroke="black" stroke-width="3" d="M353.377,-624.38C386.848,-624.242 401.283,-623.565 434.834,-623.429"/>
<polygon fill="none" stroke="black" points="353,-624.381 347.008,-628.393 341,-624.405 346.992,-620.393 353,-624.381"/>
<polygon fill="none" stroke="black" points="435,-623.428 440.992,-619.417 447,-623.405 441.008,-627.417 435,-623.428"/>
</g>
<!-- x16&#45;&gt;n15 -->
<g id="edge32" class="edge"><title>x16:s0:e&#45;&gt;n15:w</title>
<path fill="none" stroke="black" stroke-width="3" d="M735,-624.405C766.438,-624.405 767.122,-658.013 792.072,-665.102"/>
<polygon fill="black" stroke="black" points="791.63,-668.574 802,-666.405 792.541,-661.633 791.63,-668.574"/>
</g>
<!-- v17 -->
<g id="node36" class="node"><title>v17</title>
<ellipse fill="none" stroke="black" cx="1349" cy="-677.405" rx="30.1958" ry="18"/>
<text text-anchor="middle" x="1349" y="-673.205" font-family="Times,serif" font-size="14.00">i_clk</text>
</g>
<!-- v17&#45;&gt;c32 -->
<g id="edge56" class="edge"><title>v17:e&#45;&gt;c32:p21:w</title>
<path fill="none" stroke="black" d="M1381,-677.405C1404.9,-677.405 1410.87,-662.5 1429.87,-658.424"/>
<polygon fill="black" stroke="black" points="1430.4,-661.888 1440,-657.405 1429.7,-654.924 1430.4,-661.888"/>
</g>
<!-- c32&#45;&gt;n13 -->
<g id="edge22" class="edge"><title>c32:p24:e&#45;&gt;n13:w</title>
<path fill="none" stroke="black" stroke-width="3" d="M1568,-620.405C1580,-620.405 1585.25,-620.405 1593.88,-620.405"/>
<polygon fill="black" stroke="black" points="1594,-623.905 1604,-620.405 1594,-616.905 1594,-623.905"/>
</g>
<!-- v18 -->
<g id="node38" class="node"><title>v18</title>
<ellipse fill="none" stroke="black" cx="503" cy="-385.405" rx="43.4454" ry="18"/>
<text text-anchor="middle" x="503" y="-381.205" font-family="Times,serif" font-size="14.00">5&#39;01000</text>
</g>
<!-- v18&#45;&gt;c33 -->
<g id="edge57" class="edge"><title>v18:e&#45;&gt;c33:p17:w</title>
<path fill="none" stroke="black" stroke-width="3" d="M548,-385.405C594.111,-385.405 605.701,-406.922 646.823,-410.032"/>
<polygon fill="black" stroke="black" points="646.879,-413.536 657,-410.405 647.135,-406.541 646.879,-413.536"/>
</g>
<!-- c33&#45;&gt;n11 -->
<g id="edge19" class="edge"><title>c33:p18:e&#45;&gt;n11:w</title>
<path fill="none" stroke="black" d="M747,-422.405C871.509,-422.405 902.491,-431.405 1027,-431.405 1027,-431.405 1027,-431.405 1676,-431.405 1784.58,-431.405 1811.28,-468.944 1914.74,-471.29"/>
<polygon fill="black" stroke="black" points="1914.96,-474.793 1925,-471.405 1915.04,-467.793 1914.96,-474.793"/>
</g>
<!-- c34 -->
<g id="node40" class="node"><title>c34</title>
<polygon fill="none" stroke="black" points="1127.79,-605.605 1127.79,-655.205 1258.21,-655.205 1258.21,-605.605 1127.79,-605.605"/>
<text text-anchor="middle" x="1140.84" y="-638.605" font-family="Times,serif" font-size="14.00">A</text>
<polyline fill="none" stroke="black" points="1127.79,-630.405 1153.89,-630.405 "/>
<text text-anchor="middle" x="1140.84" y="-613.805" font-family="Times,serif" font-size="14.00">B</text>
<polyline fill="none" stroke="black" points="1153.89,-605.605 1153.89,-655.205 "/>
<text text-anchor="middle" x="1193" y="-634.605" font-family="Times,serif" font-size="14.00">$3</text>
<text text-anchor="middle" x="1193" y="-617.805" font-family="Times,serif" font-size="14.00">$logic_and</text>
<polyline fill="none" stroke="black" points="1232.11,-605.605 1232.11,-655.205 "/>
<text text-anchor="middle" x="1245.16" y="-626.605" font-family="Times,serif" font-size="14.00">Y</text>
</g>
<!-- c34&#45;&gt;n6 -->
<g id="edge39" class="edge"><title>c34:p18:e&#45;&gt;n6:w</title>
<path fill="none" stroke="black" d="M1258,-630.405C1271.62,-630.405 1276.97,-626.217 1286.84,-624.32"/>
<polygon fill="black" stroke="black" points="1287.35,-627.788 1297,-623.405 1286.73,-620.816 1287.35,-627.788"/>
</g>
<!-- x19&#45;&gt;c34 -->
<g id="edge11" class="edge"><title>x19:e&#45;&gt;c34:p16:w</title>
<path fill="none" stroke="black" d="M1073.04,-652.75C1089.96,-650.807 1098.81,-645.09 1115.63,-643.099"/>
<polygon fill="none" stroke="black" points="1072.98,-652.752 1067.21,-657.073 1061,-653.405 1066.77,-649.085 1072.98,-652.752"/>
<polygon fill="none" stroke="black" points="1116.02,-643.077 1121.79,-638.747 1128,-642.405 1122.23,-646.735 1116.02,-643.077"/>
</g>
<!-- c35&#45;&gt;c34 -->
<g id="edge38" class="edge"><title>c35:p18:e&#45;&gt;c34:p17:w</title>
<path fill="none" stroke="black" d="M1092,-519.405C1134.8,-519.405 1090.32,-602.12 1118.11,-616.337"/>
<polygon fill="black" stroke="black" points="1117.5,-619.784 1128,-618.405 1118.93,-612.932 1117.5,-619.784"/>
</g>
<!-- c37&#45;&gt;x9 -->
<g id="edge15" class="edge"><title>c37:p18:e&#45;&gt;x9:s0:w</title>
<path fill="none" stroke="black" stroke-width="3" d="M1079,-64.4047C1111.35,-64.4047 1121.89,-65.2119 1149.81,-65.3759"/>
<polygon fill="black" stroke="black" points="1149.99,-68.8763 1160,-65.4047 1150.01,-61.8764 1149.99,-68.8763"/>
</g>
<!-- x20&#45;&gt;c37 -->
<g id="edge12" class="edge"><title>x20:e&#45;&gt;c37:p16:w</title>
<path fill="none" stroke="black" stroke-width="3" d="M917.145,-115.102C937.097,-110.531 944.937,-95.2452 964.913,-90.6939"/>
<polygon fill="none" stroke="black" points="916.932,-115.125 911.392,-119.742 905,-116.405 910.539,-111.788 916.932,-115.125"/>
<polygon fill="none" stroke="black" points="965.068,-90.6775 970.61,-86.0637 977,-89.4047 971.458,-94.0186 965.068,-90.6775"/>
</g>
<!-- x21&#45;&gt;c37 -->
<g id="edge13" class="edge"><title>x21:e&#45;&gt;c37:p17:w</title>
<path fill="none" stroke="black" stroke-width="3" d="M749.162,-78.3423C842.053,-77.3738 871.889,-65.4452 964.732,-64.4683"/>
<polygon fill="none" stroke="black" points="749,-78.3431 743.02,-82.3739 737,-78.4047 742.979,-74.374 749,-78.3431"/>
<polygon fill="none" stroke="black" points="965,-64.467 970.979,-60.4359 977,-64.4047 971.021,-68.4358 965,-64.467"/>
</g>
<!-- c38&#45;&gt;x15 -->
<g id="edge35" class="edge"><title>c38:p18:e&#45;&gt;x15:s0:w</title>
<path fill="none" stroke="black" stroke-width="3" d="M212,-645.405C237.825,-645.405 244.094,-629.327 265.03,-625.307"/>
<polygon fill="black" stroke="black" points="265.356,-628.792 275,-624.405 264.725,-621.82 265.356,-628.792"/>
</g>
<!-- x22&#45;&gt;c38 -->
<g id="edge14" class="edge"><title>x22:e&#45;&gt;c38:p16:w</title>
<path fill="none" stroke="black" stroke-width="3" d="M1067.61,-730.514C1066.85,-735.691 1063.88,-741.673 1060,-745.405 1039.49,-765.112 1024.43,-746.146 996,-745.405 663.217,-736.735 569.889,-791.3 248,-706.405 230.703,-701.843 229.279,-693.034 212,-688.405 201.248,-685.524 119.962,-690.184 112,-682.405 111.88,-682.288 111.762,-682.167 111.645,-682.041"/>
<polygon fill="none" stroke="black" points="1067.57,-730.448 1060.94,-727.616 1061,-720.405 1067.63,-723.237 1067.57,-730.448"/>
<polygon fill="none" stroke="black" points="111.664,-682.386 107.338,-676.617 111,-670.405 115.326,-676.174 111.664,-682.386"/>
</g>
<!-- x23&#45;&gt;n12 -->
<g id="edge21" class="edge"><title>x23:e:e&#45;&gt;n12:w</title>
<path fill="none" stroke="black" stroke-width="3" d="M1858,-626.405C1879,-626.405 1886.71,-626.405 1903.56,-626.405"/>
<polygon fill="black" stroke="black" points="1904,-629.905 1914,-626.405 1904,-622.905 1904,-629.905"/>
</g>
</g>
</svg>
